PathFileType	4	(X/Y/Z)	C:\Users\Basilio\Documents\Thesis Gigler\squatting_fais\c3dfiles\038\SJ_pre1\markers_experimental.trc
DataRate	CameraRate	NumFrames	NumMarkers	Units	OrigDataRate	OrigDataStartFrame	OrigNumFrames
200.000000	200.000000	4	61	mm	200.000000	0	1366
Frame#	Time	FHD			LBHD			RBHD			C7			T10			CLAV			LSHO			LUUPA			LMUPA			LDUPA			LLEP			LMEP			LRAD			LUL			LRFIN			RSHO			RUPA1			RMUPA			RDUPA			RLEP			RMEP			RRAD			RUL			RUFIN			LASI			RASI			USACR			LSACR			RSACR			LTHI1			LTHI2			LTHI3			LTHI4			LLFC			LMFC			LTIB1			LTIB2			LTIB3			LTIB4			LLMAL			LMMAL			LHEE			LMT1			LMT2			LMT5			RTHI			RTHI2			RTHI3			RTHI4			RLFC			RMFC			RTIB1			RTIB2			RTIB3			RTIB4			RLMAL			RMMAL			RHEE			RMT1			RMT2			RMT5			
		X1	Y1	Z1	X2	Y2	Z2	X3	Y3	Z3	X4	Y4	Z4	X5	Y5	Z5	X6	Y6	Z6	X7	Y7	Z7	X8	Y8	Z8	X9	Y9	Z9	X10	Y10	Z10	X11	Y11	Z11	X12	Y12	Z12	X13	Y13	Z13	X14	Y14	Z14	X15	Y15	Z15	X16	Y16	Z16	X17	Y17	Z17	X18	Y18	Z18	X19	Y19	Z19	X20	Y20	Z20	X21	Y21	Z21	X22	Y22	Z22	X23	Y23	Z23	X24	Y24	Z24	X25	Y25	Z25	X26	Y26	Z26	X27	Y27	Z27	X28	Y28	Z28	X29	Y29	Z29	X30	Y30	Z30	X31	Y31	Z31	X32	Y32	Z32	X33	Y33	Z33	X34	Y34	Z34	X35	Y35	Z35	X36	Y36	Z36	X37	Y37	Z37	X38	Y38	Z38	X39	Y39	Z39	X40	Y40	Z40	X41	Y41	Z41	X42	Y42	Z42	X43	Y43	Z43	X44	Y44	Z44	X45	Y45	Z45	X46	Y46	Z46	X47	Y47	Z47	X48	Y48	Z48	X49	Y49	Z49	X50	Y50	Z50	X51	Y51	Z51	X52	Y52	Z52	X53	Y53	Z53	X54	Y54	Z54	X55	Y55	Z55	X56	Y56	Z56	X57	Y57	Z57	X58	Y58	Z58	X59	Y59	Z59	X60	Y60	Z60	X61	Y61	Z61	

1	0	-201.1037139892579	1704.652954101563	-920.0349121093752	-366.0910339355469	1684.005859375	-978.783630371094	-357.4541320800782	1671.831665039063	-833.1125488281252	-430.3641662597657	1496.785522460938	-900.9448242187502	-393.8756103515626	1209.6513671875	-905.5515136718752	-288.1999206542969	1475.281982421875	-920.4072875976565	-348.6881713867188	1502.30859375	-1083.900634765625	-319.4594421386719	1317.62060546875	-1246.942504882813	-275.3569030761719	1301.081176757813	-1226.756103515625	-284.2727050781251	1261.951171875	-1271.16552734375	-255.6641693115235	1203.812133789063	-1281.230712890625	-328.6692810058594	1168.510131835938	-1278.299926757813	-244.6156158447266	945.833923339844	-1139.354858398438	-189.2693328857422	924.2097778320315	-1183.0419921875	-216.6404571533204	926.5471801757815	-1078.165771484375	-307.4383544921876	1495.794921875	-748.7182006835939	-245.9355926513672	1332.473266601563	-598.3916015625001	-220.4945068359376	1295.988891601563	-620.7476806640626	-225.8693084716797	1274.40234375	-564.8306274414064	-200.487045288086	1203.020751953125	-547.0739135742189	-278.2496948242188	1174.593139648438	-531.9205322265626	-217.5214538574219	964.8317871093752	-692.9979248046876	-157.1724853515625	941.757019042969	-662.0222167968751	-187.6978302001953	946.1618652343752	-757.0750122070314	-224.6955566406251	1032.508544921875	-1037.190063476563	-213.631088256836	1039.345336914063	-782.7342529296877	-387.2781372070314	1086.010131835938	-903.1174316406252	-401.191619873047	1054.395385742188	-929.8381347656252	-394.9549560546876	1054.914184570313	-872.3327636718752	-286.3020629882813	722.6135253906251	-1128.602172851563	-253.7735900878907	644.4436035156251	-1139.682495117188	-205.8264617919922	650.1137695312501	-1125.960205078125	-276.6579589843751	592.0307006835939	-1122.417236328125	-271.2797241210938	532.7015380859376	-1123.21533203125	-228.9431915283204	506.9932861328126	-1016.189819335938	-237.1063079833985	334.2297363281251	-1089.955444335938	-304.9496154785157	305.8300476074219	-1144.277709960938	-263.2504272460938	295.1694030761719	-1126.742797851563	-274.8834228515626	213.4855041503907	-1105.02099609375	-376.9875793457032	86.40264129638673	-1116.381225585938	-318.3933105468751	95.25684356689455	-1059.05908203125	-406.975555419922	43.0749740600586	-1057.736450195313	-204.4821472167969	48.23658370971681	-1125.121826171875	-218.0966186523438	50.15737915039064	-1173.797241210938	-270.7537231445313	30.27531433105469	-1206.415405273438	-287.8130187988282	778.2171630859377	-705.4996948242189	-252.8648986816407	723.0196533203126	-690.4132690429689	-219.6900329589844	725.0016479492189	-688.0599365234376	-279.1234436035157	642.0048217773439	-705.7506713867189	-261.9059143066407	507.9457092285157	-702.4069213867189	-231.9383697509766	497.7522277832032	-816.5232543945315	-229.5721282958985	327.8251037597657	-705.3588256835939	-320.8420104980469	258.3586120605469	-688.0853271484376	-273.6478271484376	256.5840454101563	-685.3366699218751	-260.5920715332032	202.5568237304688	-707.6785888671876	-345.7232055664063	91.51430511474611	-693.9049072265626	-292.6975708007813	90.19775390625001	-759.5034179687501	-380.2080993652344	40.07943344116212	-770.2292480468752	-182.0948944091797	47.42392349243165	-678.1449584960939	-201.3855590820313	53.2450294494629	-635.4447631835939	-258.1051635742188	35.56595993041993	-608.7344970703126	
2	0.005	-201.3951568603516	1704.802978515625	-920.0267333984377	-366.3331298828126	1683.98779296875	-978.822692871094	-357.6342468261719	1671.816040039063	-833.224060058594	-430.4237060546876	1496.731567382813	-901.0047607421877	-393.857147216797	1209.662719726563	-905.5791625976565	-288.2436523437501	1475.286254882813	-920.439392089844	-348.6533203125001	1502.287109375	-1083.960693359375	-318.3895568847657	1317.396118164063	-1247.65283203125	-274.8128662109376	1301.058959960938	-1227.543579101563	-284.3064575195313	1261.91015625	-1271.216552734375	-255.7042236328126	1203.76123046875	-1281.275024414063	-328.6876831054688	1168.459228515625	-1278.361206054688	-244.7989501953126	945.7749633789065	-1139.365234375	-189.373779296875	924.1363525390627	-1183.091796875	-216.795883178711	926.4932861328127	-1078.165283203125	-307.5065307617188	1495.794555664063	-748.7252197265626	-245.9536437988282	1332.450561523438	-598.3879394531251	-220.5267333984376	1295.998657226563	-620.7523193359376	-225.9377136230469	1274.361450195313	-564.9029541015626	-200.4720764160157	1203.019409179688	-547.1383666992189	-278.2354125976563	1174.576904296875	-531.9793090820314	-217.5894775390626	964.7799072265627	-692.9998779296876	-157.16552734375	941.7449951171877	-662.0441894531251	-187.7574462890625	946.0679931640627	-757.0903930664064	-224.8022918701172	1032.457275390625	-1037.2373046875	-213.7610015869141	1039.288818359375	-782.6627197265627	-387.2934570312501	1086.091674804688	-903.0856933593752	-401.2190856933595	1054.473999023438	-929.8488769531252	-394.9912414550782	1054.978149414063	-872.2761230468752	-286.4247131347657	722.6156616210939	-1128.64697265625	-253.8505859375001	644.4370117187501	-1139.727416992188	-205.9008178710938	650.1101684570314	-1125.953857421875	-276.7422790527344	592.0303344726564	-1122.45361328125	-271.3054504394532	532.7060546875001	-1123.254150390625	-228.9323883056641	506.9861755371095	-1016.262023925781	-237.1386108398438	334.2185363769532	-1090.0029296875	-304.9684753417969	305.8283996582032	-1144.319580078125	-263.2726135253907	295.1678771972657	-1126.76318359375	-274.9131164550782	213.4732513427735	-1105.034423828125	-377.0206909179688	86.41060638427736	-1116.387573242188	-318.4264526367188	95.27825927734376	-1059.050415039063	-406.913543701172	43.04491806030274	-1057.788696289063	-204.5594635009766	48.19133377075197	-1125.115844726563	-218.1492004394532	50.15968704223634	-1173.80712890625	-270.7792358398438	30.2862949371338	-1206.413818359375	-287.8611450195313	778.2127075195315	-705.4711914062501	-252.9072875976563	723.0223388671876	-690.3946533203126	-219.7555236816407	724.9902343750001	-687.9968261718751	-279.1177978515626	641.9976806640626	-705.7008056640626	-262.1396179199219	507.6284790039064	-702.4719238281251	-231.9625701904297	497.7310485839845	-816.498718261719	-229.5911254882813	327.8217163085938	-705.3580322265626	-320.8276672363282	258.3893737792969	-688.0594482421876	-273.6141357421876	256.5592346191407	-685.2990722656251	-260.6155700683594	202.5432434082032	-707.6585693359376	-345.7400512695313	91.48782348632814	-693.8816528320314	-291.9430847167969	89.68164825439455	-759.2803344726564	-380.2081298828126	40.07939147949219	-770.2292480468752	-182.0943908691407	47.42487716674805	-678.1448974609376	-201.3866729736329	53.24320602416994	-635.4652709960939	-258.0690917968751	35.56855010986329	-608.7329101562501	
3	0.01	-201.3766632080079	1704.648681640625	-920.2541503906252	-366.6268615722657	1683.957885742188	-978.8609619140627	-357.8147583007813	1671.805786132813	-833.269470214844	-430.5025634765626	1496.735107421875	-901.1057128906252	-393.7796630859376	1209.642700195313	-905.623229980469	-288.2573242187501	1475.331909179688	-920.5032958984377	-348.7181701660157	1502.280029296875	-1084.068115234375	-318.4103393554688	1317.353271484375	-1247.731201171875	-274.7843627929688	1301.047973632813	-1227.578247070313	-284.3241577148438	1261.855224609375	-1271.229858398438	-255.6945037841797	1203.693115234375	-1281.306030273438	-328.7355957031251	1168.433471679688	-1278.4052734375	-244.9061889648438	945.7161865234377	-1139.357299804688	-189.539535522461	924.0654907226565	-1183.089477539063	-216.9041290283204	926.4570312500002	-1078.181762695313	-307.5840454101563	1495.798828125	-748.7709350585939	-245.9896087646485	1332.455932617188	-598.4553222656251	-220.5479278564454	1295.98291015625	-620.7922973632814	-225.9521942138672	1274.358764648438	-564.9382324218751	-200.528549194336	1203.014038085938	-547.1945800781251	-278.2864990234376	1174.57470703125	-532.0193481445314	-217.5894775390626	964.7799072265627	-692.9998779296876	-157.1323394775391	941.728210449219	-662.0920410156251	-187.7510986328125	946.0477294921877	-757.0921630859376	-224.8673858642579	1032.396606445313	-1037.217651367188	-213.800765991211	1039.258422851563	-782.6599121093752	-387.4069824218751	1086.149780273438	-903.066101074219	-401.323699951172	1054.5888671875	-929.8374023437502	-395.0813293457032	1055.081665039063	-872.2595825195315	-286.4453125000001	722.5758666992189	-1128.636840820313	-253.8808288574219	644.4484252929689	-1139.747192382813	-205.9077758789063	650.1018066406251	-1126.006958007813	-276.7677917480469	592.0030517578126	-1122.463989257813	-271.2851257324219	532.6726684570314	-1123.293823242188	-228.965072631836	506.9667053222657	-1016.322143554688	-237.1219024658204	334.2018432617188	-1089.9931640625	-304.9760742187501	305.8295593261719	-1144.371215820313	-263.2586669921876	295.1526794433594	-1126.770385742188	-274.9186096191407	213.4350891113282	-1105.032592773438	-376.9758911132813	86.43481445312501	-1116.373779296875	-318.4627685546876	95.2539749145508	-1059.0390625	-406.8837890625001	43.09321594238282	-1057.8203125	-204.6060485839844	48.1790237426758	-1125.133544921875	-218.0984497070313	50.14783859252931	-1173.821899414063	-270.7786560058594	30.28125000000001	-1206.413696289063	-287.9432983398438	778.1701660156252	-705.3935546875001	-252.9454650878907	723.0109863281251	-690.3128051757814	-219.7812194824219	725.0045166015626	-687.9437866210939	-279.1096191406251	641.9859008789064	-705.6980590820314	-262.1351318359376	507.6224365234376	-702.4246215820314	-231.9983062744141	497.7684020996095	-816.4556274414065	-229.6080169677735	327.8394165039063	-705.3214721679689	-320.8337707519532	258.3571472167969	-688.0529174804689	-273.6310729980469	256.5621643066407	-685.2758178710939	-260.5980529785157	202.5419311523438	-707.6668090820314	-345.7627868652344	91.51625823974611	-693.8526000976564	-291.8884582519532	89.67591094970705	-759.2528076171876	-380.2108154296876	40.09196090698243	-770.1884765625002	-182.1028900146485	47.41992187500001	-678.1782836914064	-201.3921051025391	53.24265670776369	-635.4693603515626	-258.0702209472657	35.55144119262696	-608.7247924804689	
4	0.015	-201.6539001464844	1704.863159179688	-920.3301391601565	-366.8287658691407	1683.918579101563	-978.8882446289065	-357.9674987792969	1671.792846679688	-833.327819824219	-430.5657653808595	1496.660278320313	-901.1614990234377	-393.7403259277345	1209.653198242188	-905.6060180664065	-288.2795715332032	1475.352661132813	-920.5798950195315	-348.7273864746094	1502.2744140625	-1084.126708984375	-318.3551940917969	1317.340576171875	-1247.819091796875	-274.8806152343751	1300.808227539063	-1227.516235351563	-284.3752746582032	1261.812377929688	-1271.272338867188	-255.7806396484376	1203.629760742188	-1281.30517578125	-328.7663879394532	1168.38916015625	-1278.427978515625	-245.0398559570313	945.679870605469	-1139.346923828125	-189.7191009521485	923.9871826171877	-1183.105346679688	-217.0595245361329	926.409851074219	-1078.129028320313	-307.6477966308594	1495.797485351563	-748.7864379882814	-246.0150756835938	1332.453369140625	-598.4882202148439	-220.6033477783204	1295.963623046875	-620.8383789062501	-226.0081329345704	1274.353271484375	-564.9957885742189	-200.5613098144532	1203.010864257813	-547.1915893554689	-278.3012695312501	1174.578735351563	-532.0955200195314	-217.6020050048829	964.7569580078127	-693.0316162109376	-157.1344604492188	941.7301025390627	-662.0935668945314	-187.8460845947266	946.0256958007815	-757.0670166015626	-224.9406433105469	1032.305908203125	-1037.167114257813	-213.8328399658204	1039.228393554688	-782.621032714844	-387.4080200195314	1086.255737304688	-903.0863037109377	-401.3567810058595	1054.626953125	-929.8404541015627	-395.1190185546876	1055.166259765625	-872.2663574218752	-286.5796813964844	722.5784912109376	-1128.6962890625	-253.9543762207032	644.4059448242189	-1139.795166015625	-205.9949340820313	650.0851440429689	-1125.977416992188	-276.7837219238282	592.0059204101564	-1122.52392578125	-271.3400573730469	532.6858520507814	-1123.353515625	-228.9953765869141	507.0039062500001	-1016.367980957031	-237.1250152587891	334.2198486328126	-1090.059692382813	-304.9442138671876	305.8061523437501	-1144.353149414063	-263.2388305664063	295.1546020507813	-1126.824951171875	-274.8828125000001	213.4643859863282	-1105.019165039063	-377.0032958984376	86.41124725341798	-1116.400268554688	-318.4262695312501	95.27333831787111	-1059.071044921875	-406.9052734375001	43.03774642944337	-1057.8154296875	-204.5480346679688	48.21559906005861	-1125.109497070313	-218.1230010986329	50.16069793701173	-1173.785766601563	-270.8020324707032	30.27574920654298	-1206.412963867188	-287.9618225097657	778.168884277344	-705.3229980468751	-252.9540710449219	723.0075073242189	-690.2840576171876	-219.7859191894532	724.9974365234376	-687.8472290039064	-279.1434936523438	641.9653930664064	-705.6241455078126	-261.9530639648438	507.9232788085939	-702.2591552734376	-232.0323638916016	497.7845458984376	-816.3884277343752	-229.5730590820313	327.8267822265626	-705.3352050781251	-320.8130798339844	258.3566894531251	-688.0214843750001	-273.6285705566407	256.5680236816407	-685.2514648437501	-260.6002502441407	202.5650024414063	-707.6496582031251	-345.7424926757813	91.51145172119142	-693.8551025390626	-292.6749267578126	90.19626617431642	-759.5208740234376	-380.2131958007813	40.07084274291993	-770.1755371093752	-182.0936737060547	47.42625427246094	-678.1448364257814	-201.3778228759766	53.20878219604494	-635.4869384765626	-258.0690002441407	35.56929397583009	-608.7971191406251	
